<svg fill="none" stroke="currentColor" stroke-linecap="round" stroke-linejoin="round" stroke-width="2" version="1.1" viewBox="0 0 24 24" xmlns="http://www.w3.org/2000/svg">
  <path d="m3 1.5762a1 1 0 0 0-1 1v13a1 1 0 0 0 1 1h6a3 3 0 0 1 3 3 3 3 0 0 1 3-3h6a1 1 0 0 0 1-1v-13a1 1 0 0 0-1-1h-5a4 4 0 0 0-3.6152 2.2969c-0.24257-0.013294-0.50037-0.020959-0.77734-0.025391a4 4 0 0 0-3.6074-2.2715h-5zm8.8555 2.9395c0.097393 0.018752 0.19091 0.042122 0.2793 0.068359a4 4 0 0 0-0.13477 0.99219 4 4 0 0 0-0.14453-1.0605z"/>
  <path d="m19 22.007h-14" style="stroke:#c40505"/>
  <text x="11.817075" y="15.005585" style="fill-rule:evenodd;fill:#c40505;font-family:'Times New Roman';font-size:13.38px;font-variant-caps:normal;font-variant-east-asian:normal;font-variant-ligatures:normal;font-variant-numeric:normal;font-weight:bold;letter-spacing:.71677px;line-height:0px;stroke-linecap:round;stroke-linejoin:round;stroke-width:3.351;stroke:none;text-align:center;text-anchor:middle;word-spacing:0px" xml:space="preserve"><tspan x="12.175459" y="15.005585" style="font-family:'Times New Roman';font-size:13.38px;font-variant-caps:normal;font-variant-east-asian:normal;font-variant-ligatures:normal;font-variant-numeric:normal;font-weight:bold;stroke-width:3.351">R</tspan></text>
</svg>
