<?xml version="1.0" encoding="UTF-8" standalone="no"?>
<svg
   width="24"
   height="24"
   viewBox="0 0 24 24"
   fill="none"
   stroke="currentColor"
   stroke-width="2"
   stroke-linecap="round"
   stroke-linejoin="round"
   version="1.1"
   id="svg2"
   sodipodi:docname="book-open.svg"
   inkscape:version="1.3.2 (091e20e, 2023-11-25)"
   xmlns:inkscape="http://www.inkscape.org/namespaces/inkscape"
   xmlns:sodipodi="http://sodipodi.sourceforge.net/DTD/sodipodi-0.dtd"
   xmlns="http://www.w3.org/2000/svg"
   xmlns:svg="http://www.w3.org/2000/svg">
  <defs
     id="defs2" />
  <sodipodi:namedview
     id="namedview2"
     pagecolor="#505050"
     bordercolor="#eeeeee"
     borderopacity="1"
     inkscape:showpageshadow="0"
     inkscape:pageopacity="0"
     inkscape:pagecheckerboard="0"
     inkscape:deskcolor="#505050"
     inkscape:zoom="9.8333333"
     inkscape:cx="25.983051"
     inkscape:cy="12.966102"
     inkscape:window-width="1920"
     inkscape:window-height="1052"
     inkscape:window-x="0"
     inkscape:window-y="0"
     inkscape:window-maximized="0"
     inkscape:current-layer="svg2" />
  <path
     id="path1"
     d="M 3 1.5761719 A 1 1 0 0 0 2 2.5761719 L 2 15.576172 A 1 1 0 0 0 3 16.576172 L 9 16.576172 A 3 3 0 0 1 12 19.576172 A 3 3 0 0 1 15 16.576172 L 21 16.576172 A 1 1 0 0 0 22 15.576172 L 22 2.5761719 A 1 1 0 0 0 21 1.5761719 L 16 1.5761719 A 4 4 0 0 0 12.384766 3.8730469 C 12.1422 3.8597534 11.884392 3.8520881 11.607422 3.8476562 A 4 4 0 0 0 8 1.5761719 L 3 1.5761719 z M 11.855469 4.515625 C 11.952862 4.5343766 12.046376 4.557747 12.134766 4.5839844 A 4 4 0 0 0 12 5.5761719 A 4 4 0 0 0 11.855469 4.515625 z " />
  <path
     d="M 19,22.007475 H 4.9999998"
     id="path1-3"
     style="stroke:#c40505;stroke-opacity:1" />
  <text
     xml:space="preserve"
     style="font-style:normal;font-variant:normal;font-weight:bold;font-stretch:normal;font-size:13.3797px;line-height:0px;font-family:'Times New Roman';-inkscape-font-specification:'Times New Roman, Bold';font-variant-ligatures:normal;font-variant-caps:normal;font-variant-numeric:normal;font-variant-east-asian:normal;text-align:center;letter-spacing:0.716768px;word-spacing:0px;text-anchor:middle;fill:#c40505;fill-opacity:1;fill-rule:evenodd;stroke:none;stroke-width:3.351;stroke-linecap:round;stroke-linejoin:round;stroke-opacity:1"
     x="11.817075"
     y="15.005585"
     id="text13"><tspan
       sodipodi:role="line"
       id="tspan13"
       x="12.175459"
       y="15.005585"
       style="font-style:normal;font-variant:normal;font-weight:bold;font-stretch:normal;font-size:13.3797px;font-family:'Times New Roman';-inkscape-font-specification:'Times New Roman, Bold';font-variant-ligatures:normal;font-variant-caps:normal;font-variant-numeric:normal;font-variant-east-asian:normal;stroke-width:3.351">R</tspan></text>
</svg>
